<?xml version="1.0" encoding="utf-8"?>
<!-- Generator: Adobe Illustrator 26.5.0, SVG Export Plug-In . SVG Version: 6.00 Build 0)  -->
<svg version="1.1" id="Layer_1" xmlns="http://www.w3.org/2000/svg" xmlns:xlink="http://www.w3.org/1999/xlink" x="0px" y="0px"
	 viewBox="0 0 512 512" style="enable-background:new 0 0 512 512;" xml:space="preserve">
<style type="text/css">
	.st0{fill:#3C8BD9;}
	.st1{fill:#FABC04;}
	.st2{fill:#34A852;}
	.st3{fill:#E1C025;}
</style>
<g>
	<path class="st0" d="M174.21,80.95c4.91-13.04,11.78-24.97,21.88-34.65c40.4-39.42,107.17-29.46,134.66,20.06
		c20.62,37.59,42.5,74.2,63.68,111.37c35.49,61.72,71.4,123.3,106.46,185.15c29.46,51.76-2.52,117.12-61.02,125.96
		c-35.91,5.33-69.43-11.08-88.09-43.34c-31.14-54.28-62.42-108.43-93.56-162.43c-0.56-1.26-1.4-2.24-2.24-3.37
		c-3.37-2.67-4.77-6.59-6.87-10.1c-13.75-24.27-28.05-48.39-41.8-72.52c-8.84-15.71-18.09-31.14-27.07-46.85
		c-8-14.03-11.78-29.32-11.36-45.31C169.44,96.66,170.56,88.39,174.21,80.95"/>
	<path class="st1" d="M174.21,80.95c-1.82,7.43-3.51,14.87-3.93,22.72c-0.56,17.25,3.65,33.38,12.34,48.39
		c22.72,38.99,45.31,78.13,67.89,117.26c2.1,3.51,3.65,7.01,5.75,10.24c-12.34,21.46-24.69,42.64-37.31,64.1
		c-17.25,29.88-34.65,60.03-52.18,89.91c-0.84,0-0.98-0.42-1.26-0.98c-0.14-1.68,0.42-3.09,0.84-4.77
		c8.42-30.86,1.4-58.35-19.78-81.92c-13.04-14.17-29.46-22.3-48.39-24.97c-24.69-3.51-46.57,2.95-66.21,18.38
		c-3.51,2.67-5.75,6.59-9.96,8.7c-0.84,0-1.26-0.42-1.4-0.98c9.96-17.11,19.64-34.23,29.46-51.34
		c40.82-70.98,81.64-141.81,122.74-212.65C173.23,82.5,173.79,81.79,174.21,80.95"/>
	<path class="st2" d="M21.46,347.88c3.93-3.51,7.57-7.15,11.78-10.52c50.08-39.56,125.4-10.94,136.34,51.76
		c2.67,15.01,1.26,29.46-3.37,43.9c-0.14,1.26-0.42,2.24-0.84,3.51c-1.82,3.37-3.51,6.87-5.61,10.1
		c-18.38,30.3-45.31,45.31-80.79,43.06c-40.68-2.95-72.52-33.38-78.13-73.78c-2.67-19.64,1.26-37.87,11.36-54.85
		c2.1-3.65,4.49-7.01,6.87-10.66C20.06,349.43,19.64,347.88,21.46,347.88"/>
	<path class="st1" d="M21.46,347.88c-0.84,0.84-0.84,2.24-2.24,2.52c-0.14-1.4,0.56-2.24,1.4-3.37L21.46,347.88"/>
	<path class="st3" d="M165.38,436.53c-0.84-1.4,0-2.52,0.84-3.51c0.14,0.14,0.56,0.56,0.84,0.84L165.38,436.53"/>
</g>
</svg>
